<?xml version="1.0" encoding="utf-8"?>
<!-- Generator: Adobe Illustrator 25.3.1, SVG Export Plug-In . SVG Version: 6.00 Build 0)  -->
<svg version="1.1" id="Capa_1" xmlns="http://www.w3.org/2000/svg" xmlns:xlink="http://www.w3.org/1999/xlink" x="0px" y="0px"
	 viewBox="0 0 512 512" style="enable-background:new 0 0 512 512;" xml:space="preserve">
<style type="text/css">
	.st0{fill:#FFFFFF;}
</style>
<path class="st0" d="M20.5,505.8c2.8,3.9,7.4,6.2,12.2,6.2h83.1c32.5,0,61.1-20.7,71.2-51.4L333.1,19.7c1.5-4.6,0.8-9.6-2.1-13.5
	c-2.8-3.9-7.4-6.2-12.2-6.2H192.6c-6.5,0-12.2,4.1-14.2,10.3l-159.9,482C16.9,496.8,17.7,501.9,20.5,505.8z"/>
<path class="st0" d="M396.3,512h83.1c4.8,0,9.4-2.3,12.2-6.2c2.8-3.9,3.6-8.9,2.1-13.5L350.5,62.3l-78.8,236.5L325,460.6
	C335.1,491.3,363.7,512,396.3,512L396.3,512z"/>
</svg>
